<svg width="66" height="70" viewBox="0 0 66 70" fill="#00736E" xmlns="http://www.w3.org/2000/svg">
        <g id="b-r">
                <path id="b-r-1"
                        d="M61.6864 36.5645C61.6864 36.6039 61.6864 36.6434 61.6864 36.6828C61.7627 37.6691 61.1496 37.9329 60.4552 37.9896C58.8079 38.1252 57.1631 38.2633 55.5182 38.3939C54.164 38.5024 52.8097 38.5961 51.4603 38.7046C50.1109 38.8131 48.7961 38.9339 47.4639 39.0399C46.3559 39.1312 45.2478 39.2076 44.1398 39.2865C43.0317 39.3654 41.9064 39.4739 40.791 39.5626C39.9366 39.6317 39.0846 39.7032 38.2302 39.75C37.9618 39.7648 37.8854 39.8634 37.8707 40.1223C37.787 41.6017 37.6835 43.081 37.59 44.5431C37.5432 45.3 37.5062 46.0569 37.4595 46.8139C37.3881 47.9234 37.3093 49.0329 37.2379 50.1424C37.1911 50.8401 37.1517 51.5379 37.1073 52.2357C37.0302 53.3863 36.9547 54.5451 36.8808 55.7121C36.8365 56.4 36.7971 57.0879 36.7528 57.7758C36.6764 58.9445 36.5976 60.1132 36.5262 61.2818C36.4598 62.3346 36.4031 63.385 36.3366 64.4378C36.2702 65.4906 36.1889 66.5779 36.115 67.643C36.0904 68.0153 36.0609 68.3827 36.0436 68.7624C36.0141 69.502 35.6792 69.8916 34.9405 69.968C34.6651 69.9869 34.3889 69.9911 34.1131 69.9804C33.9285 69.9804 33.8472 69.8817 33.8521 69.7018C33.8817 68.9152 33.9088 68.1263 33.9383 67.3397C33.9383 67.2411 33.9605 67.145 33.9629 67.0463C33.9876 66.0601 34.0023 65.0739 34.0294 64.0876C34.0852 62.2089 34.1452 60.3285 34.2092 58.4464C34.2453 57.2547 34.2839 56.0639 34.3249 54.8738C34.384 53.0444 34.4439 51.2133 34.5047 49.3805C34.5408 48.2003 34.5794 47.0193 34.6204 45.8375C34.6795 43.9785 34.7361 42.117 34.8001 40.2555C34.8272 39.5158 34.8518 38.8008 34.9085 38.0734C34.9725 37.2425 35.4699 36.779 36.3046 36.7322C36.7971 36.7026 37.3068 36.6853 37.8091 36.6705C39.1659 36.6261 40.5177 36.5892 41.8794 36.5423C43.4035 36.4881 44.9253 36.424 46.4495 36.3648L51.0786 36.1897L55.6167 36.0097C57.1401 35.9506 58.6635 35.8914 60.1868 35.8322C60.5709 35.8174 60.9526 35.8051 61.3367 35.7755C61.6076 35.7533 61.7184 35.8618 61.6938 36.133C61.6765 36.2859 61.6864 36.4264 61.6864 36.5645Z" />

                <path id="b-r-2"
                        d="M40.0351 66.7553H39.9464C39.2299 66.7553 39.2422 66.7553 39.2865 66.0279C39.3358 65.1822 39.3653 64.3365 39.3973 63.4909C39.4613 61.7403 39.5204 59.9873 39.5845 58.2367C39.6189 57.2834 39.6567 56.3292 39.6977 55.3742C39.7716 53.6039 39.8471 51.8336 39.9243 50.0634C39.9464 49.5135 39.9686 48.9613 39.9858 48.4114C40.0277 47.043 40.0671 45.6746 40.1114 44.3063C40.1311 43.7367 40.1434 43.1647 40.1853 42.5951C40.2173 42.1292 40.2788 42.102 40.7393 42.07C41.1136 42.0552 41.478 42.0305 41.8597 42.0133C42.8323 41.9714 43.8049 41.9368 44.7775 41.8851C46.0924 41.8185 47.4048 41.7322 48.7173 41.6632C49.6283 41.6139 50.5419 41.5818 51.4554 41.5325C52.8195 41.4635 54.1837 41.3821 55.5478 41.3106C56.1658 41.2785 56.779 41.2662 57.4044 41.2366C57.6359 41.2243 57.727 41.3229 57.7171 41.5497C57.7073 41.7766 57.7171 42.0034 57.7171 42.2302C57.6974 42.8935 57.4044 43.2682 56.7469 43.3693C56.0476 43.4778 55.341 43.537 54.6392 43.6159L50.825 44.0079L47.624 44.3284C46.3436 44.4567 45.0623 44.5873 43.7803 44.7205C43.5661 44.7402 43.3518 44.7698 43.1352 44.787C43.1015 44.787 43.0683 44.7938 43.0374 44.8071C43.0065 44.8204 42.9787 44.8399 42.9556 44.8644C42.9325 44.8889 42.9147 44.9178 42.9032 44.9495C42.8918 44.9811 42.8869 45.0148 42.8889 45.0484C42.8372 45.8226 42.7732 46.5968 42.719 47.3734C42.6419 48.4336 42.568 49.4938 42.4974 50.554C42.4309 51.5254 42.3694 52.4969 42.3029 53.4708C42.2315 54.531 42.1551 55.5912 42.0813 56.6514C42.0173 57.6129 41.9557 58.5745 41.8892 59.5361C41.8178 60.5864 41.7415 61.6367 41.6676 62.6871C41.6036 63.6117 41.5445 64.5338 41.4755 65.4559C41.4642 65.6526 41.4329 65.8475 41.382 66.0378C41.3302 66.2507 41.2061 66.439 41.0309 66.5704C40.8557 66.7017 40.6403 66.768 40.4217 66.7577H40.0375L40.0351 66.7553Z" />
                <path id="b-r-3"
                        d="M44.7185 59.6668C44.7948 57.9114 44.8712 56.1214 44.9475 54.3313C44.9697 53.7791 44.9918 53.2292 45.0091 52.677C45.0509 51.3086 45.0903 49.9402 45.1346 48.5718C45.1346 48.1674 45.1814 47.7655 45.1888 47.3612C45.1888 47.1146 45.3365 47.1146 45.5212 47.0949C46.7212 47.039 47.9195 46.9782 49.1162 46.9125C50.5493 46.836 51.9824 46.7596 53.4155 46.6659C53.6371 46.6536 53.7306 46.7103 53.7085 46.9346C53.7085 47.0333 53.7085 47.1319 53.7085 47.2305C53.7085 47.8839 53.4623 48.2513 52.8245 48.4164C52.2729 48.5594 51.7091 48.663 51.1452 48.7518C50.0289 48.9474 48.9127 49.1331 47.7964 49.309C47.5502 49.346 47.4566 49.4273 47.432 49.6936C47.2498 51.7351 47.0454 53.7717 46.8484 55.8082C46.7327 57.004 46.6022 58.1998 46.4963 59.3956C46.4775 59.6592 46.3585 59.9055 46.1638 60.0839C45.9692 60.2623 45.7137 60.3592 45.4498 60.3547H45.3907C44.6422 60.3572 44.721 60.4336 44.7185 59.6668Z" />
        </g>
        <g id="t-l">
                <path id="t-l-1"
                        d="M4.45188 21.9732C4.27706 21.9732 4.07022 21.9732 3.86338 21.9732C3.70579 21.9732 3.64424 21.9189 3.6467 21.771C3.6467 21.4061 3.62946 21.0313 3.6467 20.6787C3.68318 20.4525 3.7941 20.245 3.96183 20.0891C4.12957 19.9332 4.34452 19.8379 4.57254 19.8183C5.24475 19.7418 5.9219 19.6925 6.59904 19.6358L10.0463 19.3572L12.5086 19.1624L15.9559 18.8838L18.4675 18.694L21.8631 18.4178C22.7249 18.3488 23.5867 18.2896 24.451 18.2206C25.3916 18.1441 26.3322 18.0603 27.2728 17.9888C27.4673 17.974 27.519 17.8729 27.5363 17.7077C27.6274 16.8448 27.7234 15.9818 27.8145 15.1238C27.9229 14.0948 28.0304 13.0667 28.1371 12.0394C28.2684 10.7951 28.3981 9.55162 28.5261 8.30897C28.6468 7.16248 28.7724 6.01599 28.8881 4.87197C29.0211 3.63918 29.1557 2.4064 29.2919 1.17361C29.383 0.34518 29.7598 0.00739671 30.592 0C30.789 0 30.986 0 31.183 0C31.4292 0 31.4933 0.113416 31.4809 0.332852C31.3849 2.07108 31.2864 3.81177 31.2002 5.55246C31.1485 6.57568 31.119 7.59889 31.0697 8.6221C31.0008 10.0472 30.9195 11.4723 30.8481 12.8974C30.8013 13.822 30.7619 14.7466 30.7201 15.6712C30.6585 16.9976 30.6093 18.3266 30.5305 19.6531C30.4812 20.4864 29.9075 20.9869 29.0703 21.0116C27.4181 21.0634  25.7683 21.1299 24.1161 21.1916L21.1096 21.3075L16.4311 21.4874L13.5133 21.6009L8.61816 21.7833C7.64635 21.8211 6.67373 21.8597 5.70029 21.8992C5.28908 21.9165 4.88772 21.9436 4.45188 21.9732Z" />
                <path id="t-l-2"
                        d="M25.266 1.64697H25.591C26.0465 1.64697 26.0835 1.69382 26.0392 2.14009C25.9751 2.934 25.9259 3.73038 25.8742 4.52676C25.7954 5.73242 25.7215 6.94302 25.6476 8.15115C25.6033 8.87602 25.5639 9.60337 25.5196 10.3307C25.4457 11.5388 25.3669 12.747 25.2931 13.9551C25.266 14.4088 25.234 14.86 25.2266 15.3136C25.2266 15.5602 25.1379 15.6785 24.8671 15.6884C23.4816 15.741 22.0961 15.801 20.7107 15.8684C19.0904 15.9423 17.4702 16.0262 15.85 16.1149C14.6336 16.1741 13.4148 16.2284 12.1984 16.2925C10.4994 16.3812 8.80116 16.4724 7.10379 16.5661C6.93389 16.5661 6.83786 16.5242 6.83786 16.3442C6.83786 15.9991 6.82062 15.6514 6.83786 15.3087C6.86324 15.07 6.9716 14.8479 7.144 14.6811C7.31639 14.5144 7.54185 14.4136 7.78094 14.3964C8.15767 14.3373 8.5418 14.3077 8.92346 14.2707C10.3024 14.1359 11.6821 14.0028 13.0626 13.8713C14.2175 13.7628 15.3723 13.6642 16.5272 13.5557C17.682 13.4472 18.8171 13.3313 19.9744 13.2228C20.6787 13.1538 21.3829 13.0774 22.0871 13.033C22.3924 13.0133 22.5353 12.9319 22.5796 12.5966C22.9366 9.75377 23.3183 6.91096 23.6876 4.07063C23.7467 3.62189 23.8034 3.1707 23.8698 2.72443C23.9856 1.90832 24.3328 1.64697 25.266 1.64697Z" />
                <path id="t-l-3"
                        d="M10.0291 10.5698C10.0291 9.83017 10.3492 9.42335 11.1026 9.29515C12.0876 9.12995 13.0725 9.00174 14.0574 8.87353C15.2369 8.72067 16.4164 8.58259 17.5983 8.44452C17.7103 8.44545 17.8184 8.40365 17.9007 8.32764C17.983 8.25162 18.0334 8.14707 18.0415 8.03524C18.2877 6.74821 18.5709 5.46858 18.8393 4.18648C18.9723 3.53804 19.3318 3.2471 19.9941 3.24464C20.6565 3.24217 20.6614 3.24464 20.6146 3.9202C20.5482 4.89164 20.4989 5.86307 20.4398 6.83451C20.3709 8.00319 20.2945 9.17187 20.2281 10.3405C20.2133 10.5871 20.1099 10.6537 19.8784 10.6611C18.6201 10.7104 17.3644 10.772 16.1086 10.8337C14.6312 10.9052 13.1538 10.9841 11.6936 11.0605C11.243 11.0827 10.7899 11.0975 10.3393 11.1221C10.13 11.1221 10.0217 11.0556 10.034 10.8361C10.034 10.7474 10.0291 10.6586 10.0291 10.5698Z" />
        </g>
        <g id="t-r">
                <path id="t-r-1"
                        d="M45.371 21.1325H34.3521C33.8177 21.1325 33.8177 21.1325 33.8793 20.6049C33.9015 20.4101 33.8941 20.2128 33.9039 20.0156C33.9359 19.303 34.3964 18.8469 35.0982 18.8716C37.0163 18.9357 38.932 19.022 40.8477 19.0984L42.4975 19.1625C43.7557 19.2069 45.014 19.2439 46.2722 19.2907C47.7496 19.3449 49.227 19.4041 50.7044 19.4682C52.1375 19.5258 53.5714 19.5849 55.0061 19.6457C55.6857 19.6753 56.3604 19.7222 57.04 19.7518C57.2346 19.7518 57.3331 19.8307 57.3232 20.0353C57.3232 20.1734 57.3232 20.3115 57.3232 20.4495C57.3206 20.6309 57.2468 20.804 57.1178 20.9313C56.9888 21.0587 56.8149 21.13 56.6337 21.13C56.518 21.13 56.3875 21.13 56.2792 21.13L45.371 21.1325Z" />
                <path id="t-r-2"
                        d="M43.3371 15.9177H34.5835C34.1354 15.9177 34.128 15.9177 34.1378 15.4789C34.141 15.1738 34.1615 14.8693 34.1994 14.5666C34.225 14.2974 34.3525 14.0483 34.5559 13.8704C34.7592 13.6925 35.0228 13.5993 35.2926 13.61C35.8713 13.61 36.4524 13.6469 37.0311 13.6765C37.5408 13.7036 38.0505 13.753 38.5602 13.7776L43.9231 14.0242C45.0607 14.0784 46.1983 14.1401 47.3384 14.1992C49.1531 14.2954 50.9679 14.3965 52.7851 14.4902C52.987 14.4902 53.0707 14.5839 53.0609 14.7786C53.0609 14.9068 53.0609 15.0252 53.0609 15.1633C53.0692 15.3283 53.0177 15.4907 52.9159 15.6207C52.8141 15.7508 52.6689 15.8396 52.5068 15.8709C52.3449 15.9049 52.1798 15.9206 52.0144 15.9177H43.3371Z" />
                <path id="t-r-3"
                        d="M41.3673 10.6562H34.783C34.389 10.6562 34.3644 10.6315 34.3791 10.2346C34.3791 9.94857 34.4112 9.66503 34.4407 9.37903C34.4572 9.22692 34.5037 9.07959 34.5773 8.94555C34.651 8.8115 34.7505 8.6934 34.87 8.59804C34.9895 8.50268 35.1266 8.43196 35.2736 8.38997C35.4205 8.34797 35.5743 8.33552 35.726 8.35335C36.4401 8.42239 37.1567 8.46183 37.8732 8.51361L41.9631 8.79715L44.817 8.987L48.5548 9.23356C48.7223 9.23356 48.8011 9.31246 48.8011 9.48011C48.8011 9.59846 48.8011 9.72667 48.8011 9.83516C48.8011 10.385 48.5327 10.6513 47.9811 10.6513L41.3673 10.6562Z" />
        </g>
        <g id="b-l">
                <path
                        d="M24.4953 36.6211H31.0796C31.481 36.6211 31.5105 36.6655 31.4637 37.0723C31.4366 37.3065 31.4366 37.5432 31.4268 37.7799C31.4279 37.943 31.3937 38.1043 31.3266 38.2528C31.2594 38.4013 31.1608 38.5334 31.0377 38.6401C30.9146 38.7468 30.7698 38.8254 30.6133 38.8706C30.4569 38.9157 30.2925 38.9264 30.1316 38.9018C29.1467 38.8204 28.1617 38.7711 27.162 38.7021C26.1131 38.6306 25.0641 38.5541 24.0151 38.4802L21.1318 38.2903C19.8595 38.2065 18.5849 38.1243 17.3077 38.0438C17.1058 38.0314 16.995 37.9451 17.0049 37.7306C17.0049 37.6443 17.0049 37.5531 17.0049 37.4668C17.0246 36.9047 17.3176 36.6187 17.8815 36.6187L24.4953 36.6211Z" />
                <path
                        d="M26.5267 41.8357C27.9647 41.8357 29.4027 41.8357 30.8407 41.8357C31.1214 41.8357 31.2372 41.9047 31.2002 42.2031C31.1608 42.5458 31.2002 42.8959 31.1313 43.2337C31.1199 43.3704 31.0807 43.5034 31.0161 43.6245C30.9515 43.7455 30.8629 43.8521 30.7556 43.9375C30.6484 44.023 30.5248 44.0855 30.3925 44.1214C30.2602 44.1572 30.1219 44.1656 29.9863 44.1459C29.0752 44.0843 28.1666 43.9783 27.2556 43.887L23.5005 43.5L21.5922 43.3076C21.5434 43.311 21.4946 43.3032 21.4493 43.2848C21.404 43.2665 21.3634 43.2381 21.3307 43.2017C21.298 43.1654 21.2739 43.1221 21.2604 43.0751C21.2468 43.0281 21.2441 42.9786 21.2524 42.9304C21.2524 42.134 21.5257 41.8406 22.3309 41.8406L26.5267 41.8357Z" />
        </g>
        <g id="word">
                <path id="a1"
                        d="M0 31.9316C0.179751 31.3498 0.342265 30.8147 0.509704 30.2822C0.903677 29.0329 1.29929 27.7837 1.69655 26.5345C1.86891 25.9945 2.10037 25.8195 2.65932 25.7948C3.64426 25.7628 3.64426 25.7628 3.96929 26.712L5.56488 31.5692C5.68061 31.9292 5.66584 31.9489 5.27925 31.9514C4.96407 31.9514 4.64889 31.9514 4.33371 31.9514C4.28587 31.9613 4.23648 31.961 4.18877 31.9505C4.14105 31.94 4.09609 31.9195 4.05681 31.8904C4.01754 31.8613 3.98483 31.8243 3.96084 31.7817C3.93685 31.7391 3.9221 31.6919 3.91758 31.6432C3.86341 31.3719 3.76245 31.1131 3.69843 30.8443C3.68688 30.7675 3.6454 30.6985 3.58309 30.6523C3.52079 30.606 3.44273 30.5864 3.36601 30.5978C2.98435 30.5978 2.60023 30.5978 2.2161 30.5978C2.17483 30.5915 2.13273 30.5939 2.09239 30.6046C2.05206 30.6153 2.01434 30.6342 1.98157 30.66C1.94881 30.6859 1.92168 30.7182 1.90188 30.755C1.88208 30.7918 1.87002 30.8323 1.86645 30.8739C1.82841 31.0547 1.78074 31.2333 1.72364 31.4089C1.68949 31.5445 1.61487 31.6665 1.50973 31.7586C1.40458 31.8506 1.27391 31.9084 1.13514 31.9242C0.775636 31.9587 0.421059 31.9316 0 31.9316ZM3.33647 29.3132C3.15671 28.6968 2.99174 28.1248 2.8243 27.5552H2.75782C2.58545 28.1297 2.41309 28.7042 2.23088 29.3181L3.33647 29.3132Z" />
                <path id="f"
                        d="M6.828 29.0937C6.828 28.2866 6.828 27.4787 6.828 26.67C6.828 26.1128 7.07424 25.8145 7.6455 25.7997C8.64767 25.7775 9.6523 25.7997 10.6545 25.7997C10.8588 25.7997 10.945 25.8909 10.9204 26.0906C10.8884 26.3372 10.8465 26.5837 10.8293 26.8303C10.8121 27.0768 10.6692 27.173 10.423 27.168C9.8813 27.168 9.33959 27.168 8.79787 27.168C8.52702 27.168 8.43591 27.2568 8.4433 27.528C8.47038 28.5143 8.30787 28.3441 9.26572 28.3589C9.62029 28.3589 9.97487 28.3589 10.3294 28.3589C10.519 28.3589 10.5757 28.4329 10.5757 28.6277C10.5387 29.6681 10.5437 29.6706 9.52919 29.6706C9.28295 29.6706 9.01702 29.6706 8.76094 29.6706C8.50485 29.6706 8.43591 29.7618 8.4433 30.001C8.45561 30.3955 8.4433 30.79 8.4433 31.1845C8.44935 31.2853 8.43472 31.3862 8.40032 31.4812C8.36591 31.5761 8.31246 31.663 8.24325 31.7364C8.17404 31.8099 8.09055 31.8684 7.99791 31.9083C7.90527 31.9482 7.80545 31.9687 7.7046 31.9685C6.64333 31.9833 6.8477 32.0844 6.83293 31.1647C6.82062 30.4645 6.828 29.784 6.828 29.0937Z" />
                <path id="r"
                        d="M15.8451 29.6436L17.0763 31.907C16.9626 31.9303 16.8474 31.946 16.7316 31.9539C16.3967 31.9539 16.0618 31.9539 15.7269 31.9539C15.6205 31.9692 15.512 31.947 15.42 31.8913C15.328 31.8356 15.2581 31.7496 15.2222 31.6481C14.9759 31.1106 14.7051 30.583 14.4268 30.0628C14.3597 29.9522 14.2532 29.8712 14.1289 29.8359C13.9294 29.7817 13.8162 29.8778 13.8236 30.1047C13.8359 30.44 13.8236 30.7753 13.8236 31.1106C13.8345 31.2199 13.8216 31.3303 13.7856 31.434C13.7497 31.5378 13.6917 31.6325 13.6155 31.7116C13.5394 31.7906 13.447 31.8521 13.3447 31.8919C13.2424 31.9316 13.1328 31.9485 13.0233 31.9415C12.0704 31.9588 12.2255 32.0377 12.2206 31.1846C12.2206 29.5302 12.2206 27.8733 12.2206 26.2165C12.2206 25.822 12.2501 25.7875 12.6367 25.7924C13.5133 25.7924 14.3899 25.7924 15.2616 25.8466C15.6872 25.857 16.0914 26.0354 16.3862 26.343C16.6809 26.6506 16.8423 27.0625 16.835 27.4887C16.8514 27.813 16.8383 28.1382 16.7956 28.4601C16.7119 29.0174 16.3598 29.3798 15.8451 29.6436ZM13.8211 27.8783C13.8433 28.6303 13.6512 28.576 14.5746 28.5588C14.6836 28.5611 14.7917 28.5375 14.8897 28.4897C15.0104 28.4303 15.1125 28.3391 15.1852 28.2259C15.4782 27.6638 15.1852 27.1583 14.5499 27.1608C13.7103 27.1608 13.8334 27.0696 13.8211 27.8783Z" />
                <path id="e"
                        d="M18.3026 29.1407C18.3026 28.3418 18.3026 27.5454 18.3026 26.7466C18.3026 26.1524 18.5833 25.822 19.1693 25.8097C20.2134 25.7875 21.2574 25.8097 22.3014 25.8097C22.5058 25.8097 22.5895 25.9034 22.5649 26.1031L22.528 26.3669C22.4171 27.1066 22.4171 27.1066 21.6415 27.1066C21.1811 27.1066 20.7181 27.1066 20.2552 27.1066C20.0385 27.1066 19.9548 27.1879 19.9573 27.4024C19.972 28.3689 19.8489 28.2013 20.7403 28.2161C21.1737 28.2161 21.607 28.2161 22.0404 28.2161C22.2546 28.2161 22.3482 28.295 22.3088 28.5193C22.2662 28.7518 22.2358 28.9864 22.2177 29.222C22.2177 29.4513 22.0946 29.5302 21.8779 29.5277C21.346 29.5277 20.8142 29.5277 20.2823 29.5277C20.0361 29.5277 19.9523 29.619 19.9548 29.8606C19.972 30.7877 19.8514 30.6397 20.7354 30.6496C21.2475 30.6496 21.7597 30.6496 22.2719 30.6496C22.5181 30.6496 22.5797 30.7457 22.5649 30.9726C22.5206 31.6802 22.2325 31.9588 21.5209 31.9588C20.5655 31.9588 19.6101 31.9588 18.6572 31.9588C18.3814 31.9588 18.2952 31.8602 18.2977 31.5939C18.31 30.7778 18.3026 29.9592 18.3026 29.1407Z" />
                <g id="x">
                        <path
                                d="M29.7105 31.9439C29.0851 31.9439 28.536 31.9439 27.9869 31.9439C27.8982 31.9439 27.7899 31.8231 27.7406 31.7319C27.455 31.261 27.1817 30.7802 26.9034 30.3043C26.8665 30.2378 26.8197 30.1761 26.7508 30.075C26.6843 30.1687 26.6301 30.2304 26.5882 30.2994C26.342 30.7136 26.0958 31.1377 25.8495 31.5322C25.7696 31.6774 25.6454 31.7932 25.495 31.8626C24.9631 32.045 24.4165 31.9341 23.8033 31.9439C23.8895 31.7935 23.9314 31.7097 23.9831 31.6333C25.1305 29.8753 26.2878 28.1248 27.4304 26.3619C27.5362 26.1836 27.6882 26.0373 27.8702 25.9383C28.0522 25.8394 28.2576 25.7915 28.4645 25.7997C28.7945 25.7997 29.122 25.7997 29.5307 25.7997C29.4273 25.9945 29.3756 26.1079 29.3116 26.2115C28.8536 26.9512 28.3956 27.7081 27.9253 28.4478C27.8618 28.5276 27.8272 28.6267 27.8272 28.7288C27.8272 28.8309 27.8618 28.93 27.9253 29.0099C28.4695 29.8655 29.0013 30.7358 29.5357 31.5938C29.5726 31.6826 29.6194 31.7787 29.7105 31.9439Z" />
                        <path
                                d="M25.4114 28.1838L24.0054 25.8613C24.1029 25.8335 24.2026 25.8137 24.3033 25.8021C24.7244 25.8021 25.1504 25.7799 25.569 25.8021C25.6474 25.8136 25.7226 25.8415 25.7896 25.884C25.8567 25.9265 25.914 25.9826 25.958 26.0487C26.3717 26.7415 26.3643 26.7464 25.9088 27.4343L25.4114 28.1838Z" />
                </g>
                <path id="i"
                        d="M32.6777 28.6771V31.0983C32.6777 31.6456 32.3871 31.9514 31.8503 31.9514C30.9171 31.9514 31.0648 32.05 31.0599 31.1797C31.0599 29.7003 31.0599 28.221 31.0599 26.7219C31.0599 26.1006 31.3258 25.8146 31.9513 25.8022C32.8131 25.7874 32.6678 25.7529 32.6752 26.4926C32.6826 27.2323 32.6777 27.9498 32.6777 28.6771Z" />

                <path id="m"
                        d="M37.1641 28.83C37.5531 27.9251 37.9028 27.1041 38.2647 26.2609C38.4593 25.8023 38.4568 25.7998 38.9616 25.7998C39.2078 25.7998 39.454 25.7998 39.7003 25.7998C39.9465 25.7998 40.0622 25.9009 40.0622 26.1672C40.0622 27.3013 40.0622 28.4355 40.0622 29.5672C40.0622 30.0603 40.0622 30.5337 40.0622 31.017C40.0622 31.6259 39.816 31.8947 39.1955 31.9514C38.5331 32.0155 38.5159 32.0007 38.5159 31.335C38.5159 30.5132 38.5159 29.6913 38.5159 28.8694C38.5072 28.826 38.4956 28.7832 38.4814 28.7412C38.3706 29.01 38.2869 29.2343 38.1909 29.4415C38.0902 29.6865 37.9734 29.9245 37.8412 30.154C37.7297 30.3316 37.5645 30.469 37.3696 30.5461C37.1748 30.6233 36.9605 30.6362 36.7578 30.583C36.7039 30.5653 36.6543 30.5367 36.6119 30.4989C36.5695 30.4612 36.5354 30.4151 36.5116 30.3636C36.2875 29.8927 36.0806 29.4119 35.8664 28.936C35.8426 28.8767 35.7967 28.8289 35.7384 28.8029V29.6781C35.7384 30.3192 35.7384 30.9602 35.7384 31.6013C35.7384 31.8478 35.6473 31.9613 35.3912 31.9514C35.0859 31.9391 34.7805 31.9514 34.4752 31.9514C34.2807 31.9514 34.1896 31.875 34.1896 31.6703C34.1896 29.9444 34.1896 28.2185 34.1896 26.4926C34.1783 26.3618 34.213 26.2311 34.2876 26.1231C34.3622 26.0151 34.4721 25.9365 34.5983 25.9009C34.9422 25.8289 35.294 25.8024 35.6448 25.822C35.7433 25.822 35.8689 25.9971 35.9255 26.1179C36.2973 26.9241 36.6642 27.7353 37.0163 28.544C37.0533 28.6229 37.0902 28.6895 37.1641 28.83Z" />
                <path id="b"
                        d="M45.5236 28.7706C45.7563 28.9361 45.9415 29.1598 46.0608 29.4194C46.1801 29.679 46.2292 29.9654 46.2032 30.25C46.2099 30.6089 46.0936 30.9594 45.8736 31.2429C45.6536 31.5265 45.3433 31.726 44.9942 31.8082C44.7002 31.8895 44.3978 31.9367 44.093 31.9487C43.3543 31.9685 42.6156 31.9487 41.8769 31.9487C41.6307 31.9487 41.5248 31.8526 41.5248 31.6011C41.5248 29.9837 41.5248 28.3663 41.5248 26.7513C41.5248 26.1029 41.8252 25.7971 42.4679 25.7947C43.1548 25.7947 43.8468 25.7947 44.5313 25.8465C45.861 25.9599 46.2869 27.0595 45.9447 28.0655C45.8315 28.3158 45.6902 28.5523 45.5236 28.7706ZM43.0613 30.0675C43.0613 30.1464 43.0613 30.2253 43.0613 30.3141C43.0613 30.7036 43.0613 30.7135 43.4528 30.716C43.6301 30.716 43.8074 30.716 43.9847 30.716C44.4377 30.7012 44.6396 30.5088 44.6396 30.0996C44.6396 29.6508 44.4303 29.4413 43.965 29.4265H43.7187C42.9923 29.4166 43.0761 29.3402 43.0711 30.0798L43.0613 30.0675ZM43.6449 28.1567C43.7532 28.1567 43.8615 28.1567 43.9699 28.1567C44.0439 28.1607 44.1179 28.149 44.187 28.1221C44.2562 28.0953 44.3188 28.054 44.3707 28.0011C44.4227 27.9481 44.4628 27.8847 44.4883 27.815C44.5139 27.7454 44.5243 27.671 44.519 27.597C44.5232 27.5252 44.5123 27.4533 44.487 27.386C44.4618 27.3186 44.4228 27.2573 44.3724 27.206C44.3221 27.1547 44.2616 27.1144 44.1948 27.0879C44.128 27.0614 44.0564 27.0492 43.9847 27.0521C43.7606 27.0521 43.534 27.0521 43.3075 27.0521C43.1302 27.0521 43.0613 27.1335 43.0613 27.2987C43.0613 27.3874 43.0613 27.4762 43.0613 27.565C43.0711 28.2109 43.0194 28.1567 43.6547 28.1567H43.6449Z" />
                <path id="a2"
                        d="M52.694 31.9438C52.1473 31.9438 51.6573 31.9438 51.1698 31.9438C51.1009 31.9438 51.0073 31.8107 50.9777 31.7219C50.8842 31.4532 50.8078 31.177 50.7315 30.8984C50.7279 30.8545 50.7154 30.8117 50.6947 30.7727C50.6741 30.7337 50.6458 30.6994 50.6114 30.6717C50.5771 30.644 50.5376 30.6236 50.4951 30.6117C50.4527 30.5999 50.4083 30.5967 50.3646 30.6026C49.9903 30.6026 49.6259 30.6026 49.2418 30.6026C49.2005 30.5948 49.1581 30.5958 49.1172 30.6054C49.0762 30.615 49.0378 30.633 49.0042 30.6583C48.9706 30.6835 48.9427 30.7155 48.9221 30.7522C48.9015 30.7889 48.8888 30.8295 48.8848 30.8713V30.8984C48.6385 32.1312 48.1608 31.9512 47.267 31.9636C47.0577 31.9636 47.0478 31.8477 47.0971 31.6899C47.2498 31.1968 47.4041 30.7086 47.56 30.2253L48.6828 26.6724C48.9069 25.9673 49.1187 25.8046 49.8574 25.812C50.8743 25.812 50.6379 25.6616 50.9556 26.6083C51.5096 28.2627 52.0489 29.9221 52.5906 31.5814C52.6177 31.6702 52.6398 31.7737 52.694 31.9438ZM49.8672 27.5946H49.7761C49.621 28.1099 49.4609 28.6202 49.3181 29.138C49.3033 29.1873 49.3871 29.3205 49.4289 29.3229C49.7269 29.3377 50.0248 29.3229 50.3671 29.3229C50.1824 28.7139 50.0224 28.1543 49.8598 27.5946H49.8672Z" />
                <path id="n"
                        d="M55.3164 28.6796C55.3164 28.8448 55.3016 28.9384 55.3016 29.0321C55.3016 29.7225 55.3016 30.4129 55.3016 31.1032C55.3101 31.215 55.2948 31.3273 55.2567 31.4327C55.2186 31.5381 55.1585 31.6342 55.0806 31.7146C55.0026 31.795 54.9084 31.8579 54.8043 31.8992C54.7002 31.9404 54.5886 31.9591 54.4768 31.9538C53.7651 31.9859 53.7651 31.9859 53.7651 31.2635C53.7651 29.8433 53.7651 28.4231 53.7651 27.003C53.7622 26.8753 53.768 26.7477 53.7824 26.6208C53.7936 26.4751 53.8389 26.334 53.9146 26.209C53.9904 26.0841 54.0944 25.9787 54.2183 25.9014C54.3422 25.8241 54.4826 25.7771 54.628 25.7642C54.7734 25.7512 54.9198 25.7727 55.0554 25.8269C55.1672 25.8798 55.26 25.9659 55.3213 26.0735C55.8433 26.9216 56.3555 27.7747 56.8701 28.6253C56.949 28.7694 57.0563 28.8961 57.1853 28.9976V28.687C57.1853 27.8388 57.1853 26.9906 57.1853 26.1425C57.1853 25.8959 57.269 25.7776 57.5276 25.7874C57.7861 25.7973 58.0988 25.7874 58.3845 25.7874C58.5913 25.7874 58.6849 25.8614 58.6849 26.0833C58.6849 27.9341 58.6849 29.7874 58.6849 31.6432C58.6849 31.8601 58.6012 31.9563 58.3869 31.9415H58.3574C57.3429 31.976 57.3429 31.9785 56.816 31.1106C56.3851 30.403 55.9591 29.6929 55.5306 28.9853C55.474 28.9089 55.4026 28.8226 55.3164 28.6796Z" />
                <path id="k"
                        d="M61.7677 27.9645C62.2601 27.321 62.7526 26.6824 63.2254 26.034C63.2748 25.9542 63.3448 25.8891 63.4279 25.8457C63.5111 25.8023 63.6045 25.7822 63.6981 25.7874C64.166 25.7874 64.6363 25.7874 65.1755 25.7874C65.0721 25.9526 65.0204 26.0512 64.9539 26.1375C64.3433 26.9117 63.7228 27.6859 63.1121 28.4502C63.0807 28.4804 63.0558 28.5166 63.0387 28.5566C63.0217 28.5966 63.0129 28.6397 63.0129 28.6832C63.0129 28.7268 63.0217 28.7698 63.0387 28.8099C63.0558 28.8499 63.0807 28.8861 63.1121 28.9162C63.7892 29.8112 64.4541 30.7161 65.1238 31.6284C65.1805 31.7073 65.2346 31.7886 65.3208 31.9144C65.2281 31.9324 65.1343 31.9447 65.0401 31.9514C64.5969 31.9514 64.1537 31.9514 63.7104 31.9514C63.6171 31.959 63.5235 31.9399 63.4407 31.8963C63.3578 31.8526 63.2891 31.7862 63.2426 31.7048C62.8856 31.1969 62.5162 30.6988 62.1518 30.1959C62.0976 30.1194 62.0361 30.0455 61.9056 29.8803C61.8145 30.0808 61.7459 30.2909 61.7012 30.5065C61.6716 30.8912 61.6864 31.2758 61.7012 31.6604C61.7012 31.8626 61.615 31.944 61.4155 31.9415C61.0831 31.9415 60.7483 31.9415 60.4134 31.9415C60.2287 31.9415 60.145 31.8626 60.145 31.6752C60.145 29.9493 60.145 28.2431 60.145 26.5296C60.1347 26.3837 60.1759 26.2389 60.2614 26.1204C60.3469 26.0018 60.4713 25.9172 60.6128 25.8811C60.909 25.8194 61.2117 25.7946 61.514 25.8072C61.5756 25.8072 61.6815 25.9847 61.6864 26.0808C61.7036 26.6035 61.6864 27.1262 61.6864 27.6489C61.6864 27.7451 61.6864 27.8388 61.6987 27.9349L61.7677 27.9645Z" />
        </g>
</svg>