<svg width="20" height="21" viewBox="0 0 20 21" fill="none" xmlns="http://www.w3.org/2000/svg">
<g clip-path="url(#clip0_460_2616)">
<path d="M20.4618 10.1121C20.4618 8.28856 20 6.60709 19.0764 5.06772C18.1528 3.55203 16.9094 2.35013 15.3464 1.46203C13.7833 0.573933 12.0782 0.129883 10.2309 0.129883C8.38366 0.129883 6.67851 0.573933 5.11545 1.46203C3.5524 2.35013 2.30906 3.55203 1.38544 5.06772C0.461812 6.60709 0 8.28856 0 10.1121C0 11.9357 0.461812 13.629 1.38544 15.192C2.30906 16.7077 3.5524 17.9096 5.11545 18.7977C6.67851 19.6858 8.38366 20.1299 10.2309 20.1299C12.0782 20.1299 13.7833 19.6858 15.3464 18.7977C16.9094 17.9096 18.1528 16.7077 19.0764 15.192C20 13.629 20.4618 11.9357 20.4618 10.1121ZM0.959147 10.1121C0.959147 8.45434 1.37951 6.93272 2.22025 5.54729C3.06098 4.16185 4.19183 3.06061 5.61279 2.24356C7.03375 1.42651 8.59088 1.01798 10.2842 1.01798C11.9775 1.01798 13.5406 1.42651 14.9734 2.24356C16.4062 3.06061 17.537 4.15593 18.3659 5.52953C19.2185 6.95049 19.6448 8.48394 19.6448 10.1299C19.6448 11.7758 19.2303 13.2974 18.4014 14.6947C17.5725 16.092 16.4417 17.1992 15.0089 18.0162C13.5761 18.8333 12.0071 19.2418 10.302 19.2418C8.5968 19.2418 7.03375 18.8333 5.61279 18.0162C4.19183 17.1992 3.06098 16.092 2.22025 14.6947C1.37951 13.2974 0.959147 11.7699 0.959147 10.1121ZM10.5861 15.9025V10.1121H12.611L12.8952 8.19383H10.6572V7.23468C10.6572 6.9268 10.7223 6.68998 10.8526 6.5242C10.9828 6.35842 11.2256 6.27553 11.5808 6.27553H13.0373V4.35724H10.9769C10.148 4.35724 9.55595 4.6059 9.20071 5.10324C8.89284 5.50585 8.7389 6.14528 8.7389 7.02153V8.19383H7.56661V10.1121H8.7389V15.9025H10.5861Z" fill="white"/>
</g>
<defs>
<clipPath id="clip0_460_2616">
<rect width="20" height="20" fill="white" transform="matrix(1 0 0 -1 0 20.1299)"/>
</clipPath>
</defs>
</svg>
