<svg width="20" height="21" viewBox="0 0 20 21" fill="none" xmlns="http://www.w3.org/2000/svg">
<path d="M5.1865 1.30198C4.26288 1.30198 3.39846 1.53881 2.59325 2.01246C1.78804 2.48611 1.15453 3.11963 0.692718 3.91299C0.230906 4.70636 0 5.5767 0 6.52401V13.7354C0 14.659 0.230906 15.5234 0.692718 16.3286C1.15453 17.1338 1.78804 17.7673 2.59325 18.2292C3.39846 18.691 4.26288 18.9219 5.1865 18.9219H12.3979C13.3452 18.9219 14.2155 18.691 15.0089 18.2292C15.8022 17.7673 16.4358 17.1338 16.9094 16.3286C17.3831 15.5234 17.6199 14.659 17.6199 13.7354V6.52401C17.6199 5.5767 17.3831 4.70636 16.9094 3.91299C16.4358 3.11963 15.8022 2.48611 15.0089 2.01246C14.2155 1.53881 13.3452 1.30198 12.3979 1.30198H5.1865ZM5.1865 2.11903H12.3979C13.2031 2.11903 13.9432 2.31441 14.6181 2.70518C15.2931 3.09594 15.8259 3.6288 16.2167 4.30376C16.6075 4.97871 16.8028 5.7188 16.8028 6.52401V13.7354C16.8028 14.5169 16.6075 15.2451 16.2167 15.9201C15.8259 16.5951 15.2931 17.1338 14.6181 17.5364C13.9432 17.939 13.2031 18.1403 12.3979 18.1403H5.1865C4.40497 18.1403 3.67673 17.939 3.00178 17.5364C2.32682 17.1338 1.78804 16.5951 1.38544 15.9201C0.98283 15.2451 0.781528 14.5169 0.781528 13.7354V6.52401C0.781528 5.7188 0.98283 4.97871 1.38544 4.30376C1.78804 3.6288 2.32682 3.09594 3.00178 2.70518C3.67673 2.31441 4.40497 2.11903 5.1865 2.11903ZM13.6057 4.53466C13.3925 4.53466 13.2031 4.61163 13.0373 4.76557C12.8715 4.91951 12.7886 5.10305 12.7886 5.31619C12.7886 5.52934 12.8715 5.7188 13.0373 5.88458C13.2031 6.05035 13.3925 6.13324 13.6057 6.13324C13.8188 6.13324 14.0024 6.05035 14.1563 5.88458C14.3102 5.7188 14.3872 5.52934 14.3872 5.31619C14.3872 5.10305 14.3102 4.91951 14.1563 4.76557C14.0024 4.61163 13.8188 4.53466 13.6057 4.53466ZM8.80995 5.70696C8.00474 5.70696 7.26465 5.90826 6.5897 6.31086C5.91474 6.71347 5.38188 7.25225 4.99112 7.9272C4.60036 8.60216 4.40497 9.33632 4.40497 10.1297C4.40497 10.9231 4.60036 11.6572 4.99112 12.3322C5.38188 13.0071 5.91474 13.54 6.5897 13.9308C7.26465 14.3215 7.99882 14.5169 8.79218 14.5169C9.58555 14.5169 10.3197 14.3215 10.9947 13.9308C11.6696 13.54 12.2084 13.0071 12.611 12.3322C13.0136 11.6572 13.2149 10.9231 13.2149 10.1297C13.2149 9.33632 13.0136 8.60216 12.611 7.9272C12.2084 7.25225 11.6696 6.71347 10.9947 6.31086C10.3197 5.90826 9.59147 5.70696 8.80995 5.70696ZM8.80995 6.52401C9.80462 6.52401 10.6513 6.87333 11.3499 7.57196C12.0485 8.2706 12.3979 9.11726 12.3979 10.1119C12.3979 11.1066 12.0485 11.9592 11.3499 12.6697C10.6513 13.3801 9.80462 13.7354 8.80995 13.7354C7.81528 13.7354 6.9627 13.3801 6.25222 12.6697C5.54174 11.9592 5.1865 11.1066 5.1865 10.1119C5.1865 9.11726 5.54174 8.2706 6.25222 7.57196C6.9627 6.87333 7.81528 6.52401 8.80995 6.52401Z" fill="white"/>
</svg>
