<svg width="20" height="21" viewBox="0 0 20 21" fill="none" xmlns="http://www.w3.org/2000/svg">
<path d="M6.25222 6.38197H9.76909V8.12264C10.0533 7.62531 10.4559 7.2227 10.9769 6.91483C11.6163 6.55959 12.3387 6.38197 13.1439 6.38197C14.8253 6.38197 16.0095 6.8793 16.6963 7.87397C17.241 8.67918 17.5133 9.93436 17.5133 11.6395V17.6431H13.8899V12.2434C13.8899 11.6514 13.8662 11.2251 13.8188 10.9646C13.7478 10.4672 13.582 10.0883 13.3215 9.82779C13.0373 9.51992 12.5992 9.36598 12.0071 9.36598C11.1545 9.36598 10.5743 9.66201 10.2664 10.2541C10.0059 10.6804 9.87567 11.3435 9.87567 12.2434V17.6431H6.25222V6.38197ZM0 6.38197H3.76554V17.6431H0V6.38197ZM3.76554 3.25586C3.76554 3.75319 3.57608 4.1854 3.19716 4.55248C2.81824 4.91956 2.38011 5.1031 1.88277 5.1031C1.38544 5.1031 0.947306 4.91956 0.568384 4.55248C0.189461 4.1854 0 3.74727 0 3.23809C0 2.72892 0.189461 2.29079 0.568384 1.92371C0.947306 1.55663 1.38544 1.37309 1.88277 1.37309C2.38011 1.37309 2.81824 1.55663 3.19716 1.92371C3.57608 2.29079 3.76554 2.73484 3.76554 3.25586Z" fill="white"/>
</svg>
