<svg width="20" height="21" viewBox="0 0 20 21" fill="none" xmlns="http://www.w3.org/2000/svg">
<g clip-path="url(#clip0_460_2618)">
<path d="M15.6696 10.4673C15.5749 10.0173 15.3677 9.64435 15.048 9.34832C14.7282 9.05228 14.3552 8.88058 13.929 8.83322C9.97395 8.52534 6.0071 8.52534 2.02842 8.83322C1.60213 8.88058 1.22913 9.05228 0.909414 9.34832C0.589698 9.64435 0.382475 10.0173 0.287744 10.4673C0.0746004 11.7462 -0.0201303 13.0487 0.0035524 14.375C-0.0201303 15.6775 0.0746004 16.98 0.287744 18.2826C0.382475 18.7089 0.583777 19.07 0.891652 19.3661C1.19953 19.6621 1.56661 19.8338 1.9929 19.8812C3.98224 20.0706 5.97158 20.1535 7.96092 20.1298C9.92658 20.1535 11.9159 20.0706 13.929 19.8812C14.3552 19.8338 14.7282 19.6621 15.048 19.3661C15.3677 19.07 15.5749 18.7089 15.6696 18.2826C15.8828 17.0037 15.9775 15.7012 15.9538 14.375C15.9775 13.0487 15.8828 11.7462 15.6696 10.4673ZM4.55062 11.5686H3.41385V17.9274H2.34813V11.5686H1.21137V10.5384H4.55062V11.5686ZM7.46359 17.9274H6.50444V17.3234C6.24393 17.7261 5.87685 17.9629 5.4032 18.0339C5.2611 18.0339 5.13085 17.9984 5.01243 17.9274C4.89402 17.8563 4.82297 17.7497 4.79929 17.6076C4.72824 17.3234 4.69272 17.0511 4.69272 16.7906V12.4211H5.65187V16.5064C5.65187 16.6248 5.65187 16.7551 5.65187 16.8972C5.65187 16.9445 5.67555 16.9919 5.72291 17.0393C5.77028 17.0866 5.81764 17.1103 5.86501 17.1103H5.90053C6.18472 17.0629 6.38603 16.909 6.50444 16.6485V12.4211H7.46359V17.9274ZM11.1226 16.2933C11.1462 16.6722 11.1107 17.0393 11.016 17.3945C10.9923 17.584 10.9094 17.7379 10.7673 17.8563C10.6252 17.9747 10.4594 18.0221 10.27 17.9984C9.82001 17.9747 9.48845 17.7734 9.27531 17.3945V17.9274H8.31616V10.5384H9.27531V12.954C9.48845 12.5751 9.82001 12.3738 10.27 12.3501C10.4594 12.3501 10.6252 12.4093 10.7673 12.5277C10.9094 12.6461 10.9923 12.8001 11.016 12.9895C11.1107 13.3448 11.1462 13.7118 11.1226 14.0908V16.2933ZM14.746 15.3696H12.8277V16.3288C12.8277 16.8498 12.9935 17.1103 13.325 17.1103C13.4435 17.1103 13.5441 17.0748 13.627 17.0037C13.7099 16.9327 13.7513 16.838 13.7513 16.7195C13.775 16.4827 13.7869 16.2577 13.7869 16.0446H14.746V16.1867C14.746 16.3998 14.7342 16.613 14.7105 16.8261C14.6868 17.0393 14.6157 17.2406 14.4973 17.43C14.3789 17.6195 14.2131 17.7675 14 17.8741C13.7869 17.9806 13.5619 18.0339 13.325 18.0339C12.8514 18.0339 12.4784 17.8385 12.206 17.4478C11.9337 17.057 11.8212 16.6248 11.8686 16.1512V14.2329C11.8212 13.7592 11.9159 13.3211 12.1528 12.9185C12.2948 12.729 12.4665 12.5869 12.6679 12.4922C12.8692 12.3975 13.0823 12.3501 13.3073 12.3501C13.5323 12.3501 13.7454 12.4034 13.9467 12.5099C14.148 12.6165 14.3197 12.7527 14.4618 12.9185C14.675 13.3211 14.7697 13.7592 14.746 14.2329V15.3696ZM9.73712 13.2737C9.54766 13.2737 9.39372 13.3448 9.27531 13.4869V16.8616C9.39372 17.0274 9.54766 17.1103 9.73712 17.1103C10.0213 17.1103 10.1634 16.8616 10.1634 16.3643V14.0197C10.1634 13.5224 10.0213 13.2737 9.73712 13.2737ZM13.2895 13.2737C12.9816 13.2737 12.8277 13.5224 12.8277 14.0197V14.5171H13.7869V14.0197C13.7869 13.5224 13.6211 13.2737 13.2895 13.2737ZM3.94671 4.57034V7.58988H5.01243V4.57034L6.32682 0.129845H5.22558L4.47957 3.04281L3.73357 0.129845H2.5968C2.78626 0.698227 3.01125 1.3791 3.27176 2.17247C3.53227 2.96584 3.75725 3.76513 3.94671 4.57034ZM7.74778 7.66093C7.98461 7.68461 8.20367 7.64316 8.40497 7.53659C8.60628 7.43002 8.76613 7.282 8.88455 7.09254C9.12137 6.68994 9.22795 6.25181 9.20426 5.77816V3.82434C9.22795 3.37437 9.12137 2.93624 8.88455 2.50995C8.76613 2.32049 8.60628 2.17839 8.40497 2.08366C8.20367 1.98893 7.99053 1.94157 7.76554 1.94157C7.54056 1.94157 7.32741 1.99485 7.12611 2.10142C6.92481 2.20799 6.75311 2.34417 6.61101 2.50995C6.37419 2.91255 6.27946 3.35068 6.32682 3.82434V5.77816C6.27946 6.25181 6.37419 6.68994 6.61101 7.09254C6.75311 7.282 6.92481 7.43002 7.12611 7.53659C7.32741 7.64316 7.53464 7.68461 7.74778 7.66093ZM7.28597 3.64672C7.28597 3.1257 7.43991 2.86519 7.74778 2.86519C8.05565 2.86519 8.20959 3.1257 8.20959 3.64672V5.9913C8.20959 6.51232 8.05565 6.77283 7.74778 6.77283C7.43991 6.77283 7.28597 6.51232 7.28597 5.9913V3.64672ZM10.6963 7.66093C11.1699 7.61356 11.537 7.38858 11.7975 6.98597V7.58988H12.7922V2.01261H11.7975V6.27549C11.6791 6.536 11.4778 6.70178 11.1936 6.77283C11.1462 6.77283 11.0989 6.74914 11.0515 6.70178C11.0041 6.65441 10.9805 6.59521 10.9805 6.52416V2.01261H9.98579V6.41759C9.98579 6.70178 10.0095 6.98597 10.0568 7.27016C10.1042 7.38858 10.1871 7.48923 10.3055 7.57212C10.4239 7.65501 10.5542 7.68461 10.6963 7.66093Z" fill="white"/>
</g>
<defs>
<clipPath id="clip0_460_2618">
<rect width="20" height="20" fill="white" transform="matrix(1 0 0 -1 0 20.1299)"/>
</clipPath>
</defs>
</svg>
